<svg width="100" height="100" viewBox="0 0 100 100" fill="none" xmlns="http://www.w3.org/2000/svg">
<path d="M2 11H20.7046C26.791 11 31.3558 12.6343 34.399 15.9029C37.4422 19.1714 38.9638 23.9629 38.9638 30.2771V69.7229C38.9638 76.0371 37.4422 80.8286 34.399 84.0971C31.3558 87.3657 26.791 89 20.7046 89H2V11ZM20.4819 77.8571C22.4859 77.8571 24.0075 77.2629 25.0467 76.0743C26.16 74.8857 26.7167 72.9543 26.7167 70.28V29.72C26.7167 27.0457 26.16 25.1143 25.0467 23.9257C24.0075 22.7371 22.4859 22.1429 20.4819 22.1429H14.247V77.8571H20.4819Z" fill="#A60000"/>
<path d="M47.2305 11H64.7104L72.5039 66.8257H72.7266L80.5202 11H98V89H86.421V29.9429H86.1983L77.2914 89H67.0484L58.1415 29.9429H57.9188V89H47.2305V11Z" fill="#A60000"/>
</svg>
